<?xml version="1.0" standalone="no"?>
<!DOCTYPE svg PUBLIC "-//W3C//DTD SVG 20010904//EN"
 "http://www.w3.org/TR/2001/REC-SVG-20010904/DTD/svg10.dtd">
<svg version="1.0" xmlns="http://www.w3.org/2000/svg"
 width="2013.000000pt" height="2013.000000pt" viewBox="0 0 2013.000000 2013.000000"
 preserveAspectRatio="xMidYMid meet">
<metadata>
Created by potrace 1.11, written by Peter Selinger 2001-2013
</metadata>
<g transform="translate(0.000000,2013.000000) scale(0.100000,-0.100000)"
fill="#000000" stroke="none">
<path d="M6347 16694 c-1 -1 -51 -5 -112 -8 -184 -11 -495 -43 -600 -62 -11
-2 -40 -7 -65 -10 -37 -5 -118 -19 -275 -50 -223 -43 -525 -124 -780 -209
-743 -247 -1426 -621 -2049 -1123 -72 -58 -133 -108 -136 -111 -3 -3 -39 -35
-80 -71 -711 -617 -1325 -1460 -1700 -2331 -17 -41 -40 -93 -51 -116 -10 -24
-19 -46 -19 -49 0 -3 -6 -20 -14 -37 -21 -46 -102 -273 -147 -412 -82 -251
-168 -599 -214 -860 -3 -16 -7 -42 -10 -58 -24 -137 -50 -326 -61 -452 -3 -38
-7 -80 -9 -93 -11 -70 -20 -321 -20 -567 1 -326 11 -529 39 -760 2 -16 7 -55
10 -86 4 -31 8 -66 10 -76 3 -11 7 -44 11 -74 4 -30 8 -56 10 -59 2 -3 6 -27
9 -55 20 -149 128 -625 170 -743 8 -23 15 -46 16 -50 2 -34 108 -347 185 -542
205 -524 499 -1053 842 -1512 88 -119 213 -278 233 -298 3 -3 34 -39 70 -80
121 -140 145 -165 340 -360 107 -108 245 -238 305 -290 61 -52 115 -99 121
-105 6 -5 25 -21 43 -35 18 -14 42 -33 54 -44 59 -50 308 -234 432 -318 309
-210 768 -463 1075 -592 63 -27 129 -54 145 -62 142 -62 623 -225 737 -249 10
-2 59 -15 110 -29 51 -14 104 -27 118 -30 14 -3 34 -7 45 -10 58 -14 317 -66
360 -72 28 -3 53 -8 56 -10 4 -2 28 -6 55 -9 27 -3 56 -8 64 -10 8 -2 40 -7
70 -10 30 -3 67 -8 82 -11 32 -5 82 -10 193 -19 44 -4 90 -8 103 -10 46 -7
352 -18 507 -18 153 0 468 11 503 18 9 1 58 6 107 10 50 3 104 8 120 10 17 2
56 7 88 10 32 4 66 8 76 10 10 2 42 6 71 10 29 4 62 9 74 11 34 7 67 12 140
24 38 6 72 13 75 15 4 2 27 6 51 10 25 3 61 10 80 15 19 5 46 11 60 14 129 25
420 105 625 172 386 127 865 339 1201 532 78 45 148 84 156 87 8 3 49 -14 90
-39 591 -349 1263 -609 1968 -762 36 -8 79 -17 95 -20 17 -3 62 -11 100 -19
39 -7 93 -17 120 -21 28 -4 57 -8 65 -10 25 -5 93 -14 135 -19 22 -3 60 -7 85
-10 25 -3 56 -7 70 -10 14 -2 66 -7 115 -11 50 -4 106 -8 125 -10 235 -20 737
-19 980 1 101 9 175 16 213 20 131 16 187 24 302 42 55 8 116 17 135 20 29 4
263 52 335 68 11 3 29 7 41 9 11 2 67 16 125 31 600 156 1188 398 1689 694 52
30 103 60 113 66 136 79 451 298 627 435 122 95 290 239 444 380 32 29 298
297 346 349 41 43 172 194 224 256 32 39 68 81 79 95 57 67 243 321 333 455
92 138 254 398 254 409 0 2 21 39 46 82 65 109 220 430 298 614 168 401 290
794 381 1230 24 117 27 130 40 210 4 25 9 54 11 65 3 11 7 38 9 60 3 22 7 51
10 65 3 14 7 45 10 70 6 54 14 112 20 160 5 33 10 93 20 235 30 410 18 912
-29 1280 -3 22 -8 60 -11 85 -6 55 -16 128 -21 155 -11 58 -26 143 -28 165 -5
36 -35 186 -51 250 -8 30 -16 66 -19 80 -2 14 -13 61 -24 105 -159 633 -416
1244 -764 1818 -59 97 -140 223 -155 242 -4 6 -26 37 -48 70 -22 33 -45 67
-52 75 -6 8 -62 83 -123 165 -62 83 -116 152 -119 155 -4 3 -29 32 -55 65
-142 177 -440 490 -621 655 -86 78 -219 194 -264 230 -24 19 -55 45 -70 57
-94 81 -392 296 -561 405 -290 188 -711 409 -1010 532 -91 37 -174 71 -185 76
-11 5 -47 19 -80 30 -33 12 -69 25 -80 30 -33 15 -322 107 -455 144 -179 51
-527 129 -675 151 -120 18 -174 26 -195 30 -14 2 -52 6 -85 10 -32 4 -62 8
-65 10 -3 1 -48 6 -100 10 -52 4 -108 9 -125 11 -196 24 -841 24 -1090 0 -16
-2 -64 -6 -105 -10 -41 -4 -86 -9 -100 -11 -14 -2 -50 -7 -80 -10 -30 -4 -66
-8 -80 -10 -14 -2 -45 -7 -70 -10 -25 -3 -52 -8 -60 -10 -8 -2 -35 -7 -60 -10
-25 -4 -67 -11 -95 -17 -27 -5 -63 -12 -80 -14 -26 -4 -232 -49 -275 -59 -287
-73 -673 -193 -815 -254 -11 -5 -51 -21 -90 -36 -38 -15 -88 -35 -110 -45 -22
-9 -85 -37 -140 -61 -139 -60 -457 -223 -595 -304 -63 -37 -120 -68 -126 -68
-6 0 -53 24 -105 55 -531 310 -1213 586 -1744 704 -38 8 -77 17 -85 20 -83 23
-478 96 -590 109 -25 2 -61 7 -80 10 -62 8 -114 14 -180 20 -36 3 -85 8 -110
10 -133 13 -274 18 -533 19 -158 1 -289 1 -290 0z m648 -1018 c50 -4 108 -9
130 -11 22 -2 67 -7 100 -10 66 -6 136 -14 175 -20 14 -2 48 -7 75 -11 28 -3
59 -8 70 -11 11 -2 58 -10 105 -19 739 -132 1460 -424 2095 -849 124 -83 367
-262 410 -302 11 -10 29 -25 41 -33 12 -8 54 -44 95 -80 40 -36 96 -85 125
-110 28 -25 1331 -1324 2894 -2888 l2844 -2843 -22 -37 c-37 -66 -179 -265
-247 -347 -90 -109 -282 -303 -385 -389 -47 -39 -87 -73 -90 -76 -11 -12 -151
-111 -233 -165 l-88 -59 -55 55 c-31 30 -1301 1298 -2823 2819 -1521 1521
-2818 2810 -2881 2866 -411 360 -870 626 -1385 801 -194 66 -474 136 -630 158
-22 3 -51 8 -65 11 -25 6 -38 7 -150 19 -36 4 -74 9 -85 11 -30 6 -307 17
-411 17 -88 0 -309 -11 -369 -18 -16 -2 -57 -7 -90 -10 -33 -4 -71 -8 -85 -10
-14 -2 -45 -7 -70 -10 -206 -29 -646 -143 -795 -206 -11 -4 -71 -28 -133 -54
-729 -293 -1405 -847 -1849 -1515 -330 -496 -540 -1032 -638 -1626 -8 -51 -23
-172 -30 -239 -24 -246 -24 -633 0 -840 13 -109 16 -131 20 -145 2 -8 6 -40
10 -71 3 -31 10 -71 15 -88 5 -17 9 -34 9 -36 -2 -38 66 -318 115 -470 173
-547 451 -1040 827 -1468 125 -142 362 -371 495 -477 285 -228 621 -434 903
-555 47 -20 99 -42 115 -50 224 -99 715 -236 937 -260 30 -4 60 -8 67 -10 7
-3 40 -7 75 -10 34 -4 68 -8 75 -11 69 -22 726 -22 849 0 10 2 45 7 78 10 33
4 74 10 90 12 17 3 41 7 55 9 97 13 332 64 445 96 39 11 112 34 163 50 50 17
96 29 102 27 5 -2 227 -219 492 -484 266 -264 527 -519 580 -567 95 -85 97
-87 75 -102 -12 -8 -24 -15 -28 -15 -4 0 -58 -24 -120 -54 -225 -107 -530
-221 -789 -296 -80 -23 -152 -43 -160 -45 -8 -2 -62 -15 -120 -29 -58 -14
-116 -27 -130 -30 -14 -3 -59 -12 -100 -20 -41 -8 -93 -17 -115 -20 -22 -4
-65 -11 -95 -16 -30 -5 -77 -12 -105 -15 -27 -3 -61 -8 -75 -10 -14 -3 -61 -7
-105 -11 -44 -3 -89 -8 -100 -10 -110 -21 -808 -21 -935 1 -14 2 -56 6 -95 10
-38 3 -86 8 -105 10 -19 3 -55 7 -80 10 -49 6 -272 42 -305 49 -11 3 -65 14
-120 26 -55 11 -108 23 -117 25 -10 3 -26 7 -36 9 -9 2 -37 9 -62 16 -25 7
-52 14 -60 16 -45 10 -167 46 -250 72 -502 159 -961 377 -1400 667 -107 71
-241 165 -275 192 -5 5 -37 29 -70 54 -74 57 -191 154 -271 225 -33 29 -71 63
-85 74 -65 57 -264 258 -389 396 -154 168 -345 415 -499 646 -61 91 -111 169
-111 171 0 3 -18 35 -41 72 -184 303 -383 743 -499 1101 -63 196 -145 508
-174 667 -10 58 -26 143 -31 175 -12 73 -14 89 -20 132 -3 25 -8 56 -10 70 -2
14 -7 57 -10 95 -4 39 -8 81 -10 95 -31 204 -25 900 9 1140 3 19 8 60 11 90 4
30 10 80 15 110 5 30 12 71 15 90 3 19 13 73 21 120 9 47 18 99 21 115 6 42
81 348 97 399 7 22 23 75 36 116 52 178 187 536 234 625 9 17 16 33 16 37 0 3
25 57 56 120 54 111 64 130 84 166 5 9 16 31 23 47 53 115 353 588 444 700 5
6 22 28 38 50 36 48 39 51 111 140 194 240 421 474 685 707 480 422 1111 795
1729 1021 284 104 636 202 867 241 51 9 88 16 113 21 14 3 45 8 70 11 25 3 54
8 64 10 43 8 239 32 326 40 19 1 94 6 165 10 72 3 131 7 133 9 5 4 494 -3 577
-9z m6890 0 c17 -3 70 -8 120 -11 49 -4 96 -8 105 -10 8 -2 44 -6 80 -10 36
-3 72 -8 80 -10 8 -2 35 -7 60 -10 25 -2 56 -7 70 -10 58 -11 77 -15 115 -20
50 -7 278 -56 330 -71 6 -2 19 -5 30 -8 361 -85 782 -243 1155 -431 413 -210
851 -503 1150 -771 19 -17 60 -53 90 -80 133 -118 381 -375 530 -550 181 -212
427 -559 548 -774 11 -19 36 -64 57 -100 52 -90 176 -339 226 -451 167 -380
291 -769 368 -1159 46 -232 54 -281 77 -485 3 -33 8 -68 10 -77 1 -10 6 -62 9
-115 4 -54 8 -120 10 -148 5 -64 5 -547 1 -600 -2 -22 -7 -87 -10 -145 -4 -58
-9 -112 -11 -120 -2 -8 -7 -46 -10 -85 -8 -87 -14 -133 -20 -165 -2 -14 -7
-45 -10 -70 -5 -35 -56 -298 -80 -414 -3 -11 -25 -94 -49 -186 -211 -780 -595
-1513 -1119 -2134 -220 -260 -518 -553 -767 -751 -41 -33 -77 -62 -80 -66 -14
-15 -220 -163 -335 -239 -414 -277 -844 -489 -1308 -645 -136 -46 -384 -119
-437 -130 -8 -2 -55 -12 -103 -24 -49 -12 -103 -23 -120 -26 -18 -4 -63 -12
-102 -20 -94 -18 -314 -52 -395 -60 -36 -4 -77 -8 -91 -10 -14 -2 -64 -6 -110
-10 -46 -3 -106 -8 -134 -10 -61 -6 -548 -6 -627 -1 -167 11 -245 18 -258 21
-8 2 -45 6 -81 10 -36 3 -76 7 -90 10 -38 6 -101 15 -139 20 -19 3 -46 7 -60
10 -14 3 -41 8 -60 11 -72 11 -238 46 -335 71 -55 14 -107 27 -115 29 -52 12
-137 36 -150 41 -8 3 -20 7 -27 9 -54 11 -414 137 -498 174 -11 5 -78 35 -150
66 -372 162 -780 400 -1103 646 -316 239 -341 263 -3288 3210 l-2868 2867 87
128 c197 294 427 539 701 747 85 64 272 191 282 191 3 0 1277 -1271 2832
-2825 1555 -1554 2863 -2858 2907 -2897 568 -506 1300 -858 2025 -973 41 -6
86 -14 100 -16 236 -42 832 -53 1040 -20 14 3 50 7 80 10 174 20 447 76 630
130 589 175 1100 457 1555 856 670 589 1127 1374 1308 2245 23 109 30 151 42
240 2 17 7 50 11 75 35 238 39 717 9 970 -85 698 -297 1280 -668 1835 -186
278 -466 597 -697 794 -41 35 -77 67 -80 71 -16 23 -330 249 -451 325 -184
114 -461 254 -659 332 -174 69 -427 150 -523 169 -10 2 -27 6 -37 9 -10 3 -29
8 -42 11 -66 14 -126 26 -148 30 -14 2 -47 9 -75 14 -212 39 -407 55 -700 55
-356 0 -569 -21 -875 -88 -143 -32 -318 -79 -412 -112 -58 -20 -74 -23 -86
-12 -8 6 -214 210 -457 452 -428 427 -549 545 -648 632 -26 22 -47 44 -47 48
0 13 334 163 530 238 188 71 508 171 648 202 9 2 78 18 152 34 75 17 153 33
174 37 21 3 48 8 60 10 40 8 151 25 191 30 22 2 54 6 70 9 17 2 62 7 100 10
39 4 77 8 85 10 8 2 71 7 140 11 69 3 126 8 128 9 5 5 604 -4 637 -9z m-7080
-2521 c136 -7 155 -8 244 -20 52 -7 68 -9 121 -20 14 -2 39 -7 57 -10 110 -18
384 -95 478 -135 11 -4 47 -18 80 -31 74 -28 280 -127 357 -171 139 -81 169
-100 274 -175 62 -44 152 -113 200 -154 49 -40 1289 -1273 2757 -2741 2261
-2261 2664 -2668 2645 -2672 -136 -29 -292 -41 -518 -41 -210 0 -311 7 -466
31 -55 9 -111 17 -125 20 -32 4 -260 60 -309 75 -222 69 -552 214 -662 290
-14 11 -29 19 -32 19 -6 0 -146 90 -156 100 -3 3 -18 14 -35 24 -16 11 -34 23
-40 28 -5 4 -35 27 -65 50 -30 24 -60 47 -66 53 -6 5 -43 37 -82 70 -73 62
-5372 5355 -5372 5367 0 3 39 11 88 18 48 6 101 13 117 16 17 2 91 7 165 10
74 4 136 7 137 8 2 2 20 1 40 0 21 -1 97 -5 168 -9z m6970 -6 c39 -4 93 -11
120 -14 257 -29 595 -124 875 -247 97 -42 265 -132 395 -211 46 -28 246 -175
315 -231 86 -70 291 -273 365 -360 104 -123 305 -400 305 -421 0 -3 11 -23 25
-44 135 -214 312 -678 349 -915 4 -21 8 -41 10 -45 2 -3 6 -28 10 -56 3 -27 8
-59 10 -70 4 -19 12 -78 22 -160 16 -129 10 -541 -10 -670 -3 -16 -8 -57 -11
-90 -4 -33 -10 -63 -14 -68 -4 -4 -811 796 -1794 1778 -982 981 -1783 1786
-1779 1789 12 7 89 18 217 31 39 4 71 9 73 10 8 7 454 2 517 -6z m-6615 -6120
c0 -3 -6 -6 -12 -6 -17 -1 -128 -14 -151 -19 -125 -23 -610 -23 -733 0 -10 2
-41 7 -69 10 -237 30 -557 119 -794 220 -353 152 -672 367 -947 641 -72 71
-155 159 -185 195 -30 36 -56 67 -59 70 -18 18 -106 139 -157 215 -259 389
-433 848 -489 1290 -3 28 -8 58 -10 68 -27 144 -21 612 10 782 2 11 7 42 11
69 l7 49 1789 -1789 c984 -984 1789 -1792 1789 -1795z"/>
</g>
</svg>
